<svg width="1024" height="1024" viewBox="0 0 1024 1024" fill="none" xmlns="http://www.w3.org/2000/svg">
  <rect width="1024" height="1024" rx="220" fill="#5B34EA"/>
  <circle cx="516" cy="780.8" r="102.4" transform="rotate(90 516 780.8)" fill="white"/>
  <circle cx="516" cy="192" r="102.4" transform="rotate(90 516 192)" fill="white"/>
  <path d="M132.267 345.067C132.267 373.276 143.676 398.822 162.133 417.343C180.59 435.864 180.59 595.07 162.133 613.591C143.676 632.112 132.267 657.658 132.267 685.867C132.267 742.416 178.118 788.267 234.667 788.267C291.216 788.267 337.067 742.416 337.067 685.867C337.067 653.532 322.077 624.698 298.667 605.931C275.257 587.164 241.148 436.945 298.667 449.238C356.185 461.531 408.154 500.659 416.179 537.753C426.154 583.856 467.173 618.4 516.267 618.4C566.28 618.4 607.91 582.549 616.875 535.145C624.175 496.56 676.587 458.771 733.867 447.802C791.146 436.833 757.257 587.164 733.867 605.931C710.457 624.698 695.467 653.532 695.467 685.867C695.467 742.416 741.318 788.267 797.867 788.267C854.416 788.267 900.267 742.416 900.267 685.867C900.267 657.658 888.858 632.112 870.4 613.591C851.943 595.07 851.943 435.864 870.4 417.343C888.858 398.822 900.267 373.276 900.267 345.067C900.267 288.518 854.416 242.667 797.867 242.667C745.951 242.667 703.071 281.267 696.359 331.312C689.647 381.357 613.974 421.376 546.491 417.826C523.958 416.64 505.98 417.415 483.503 418.651C417.313 422.288 342.099 385.015 336.49 333.763C330.881 282.51 287.453 242.667 234.667 242.667C178.118 242.667 132.267 288.518 132.267 345.067Z" fill="white"/>
</svg>
