<svg width="120" height="120" viewBox="0 0 120 120" fill="none" xmlns="http://www.w3.org/2000/svg">
  <defs>
    <linearGradient id="miru-bg" x1="17" y1="12" x2="104" y2="108" gradientUnits="userSpaceOnUse">
      <stop stop-color="#8B5CF6"/>
      <stop offset="0.52" stop-color="#5B34EA"/>
      <stop offset="1" stop-color="#3B1479"/>
    </linearGradient>
    <linearGradient id="miru-shine" x1="34" y1="10" x2="74" y2="66" gradientUnits="userSpaceOnUse">
      <stop stop-color="white" stop-opacity="0.32"/>
      <stop offset="1" stop-color="white" stop-opacity="0"/>
    </linearGradient>
  </defs>
  <rect x="7" y="7" width="106" height="106" rx="27" fill="url(#miru-bg)"/>
  <path d="M22 11H78C59 17 43 30 31 48C24 58 19 70 15 85C10 72 7 56 7 34C7 21.85 16.85 11 22 11Z" fill="url(#miru-shine)"/>
  <path d="M32 43C43 43 49 56 60 56C71 56 77 43 88 43" stroke="white" stroke-width="8.5" stroke-linecap="round" stroke-linejoin="round"/>
  <path d="M32 77C43 77 49 64 60 64C71 64 77 77 88 77" stroke="white" stroke-width="8.5" stroke-linecap="round" stroke-linejoin="round" opacity="0.92"/>
  <path d="M60 31V89" stroke="white" stroke-width="8.5" stroke-linecap="round" opacity="0.96"/>
  <circle cx="60" cy="31" r="10" fill="white"/>
  <circle cx="60" cy="89" r="10" fill="white"/>
  <circle cx="32" cy="43" r="10" fill="white"/>
  <circle cx="32" cy="77" r="10" fill="white"/>
  <circle cx="88" cy="43" r="10" fill="white"/>
  <circle cx="88" cy="77" r="10" fill="white"/>
  <circle cx="60" cy="60" r="6.5" fill="#EDE9FE"/>
</svg>
